<svg xmlns="http://www.w3.org/2000/svg" version="1.1" xmlns:xlink="http://www.w3.org/1999/xlink" xmlns:svgjs="http://svgjs.dev/svgjs" width="1000" height="1000" viewBox="0 0 1000 1000"><rect width="1000" height="1000" fill="#ffffff"></rect><g transform="matrix(0.7,0,0,0.7,150.0000000000001,106.25)"><svg viewBox="0 0 320 360" data-background-color="#ffffff" preserveAspectRatio="xMidYMid meet" height="1125" width="1000" xmlns="http://www.w3.org/2000/svg" xmlns:xlink="http://www.w3.org/1999/xlink"><g id="tight-bounds" transform="matrix(1,0,0,1,0,0)"><svg viewBox="0 0 320 360" height="360" width="320"><g><svg></svg></g><g><svg viewBox="0 0 320 360" height="360" width="320"><g><path xmlns="http://www.w3.org/2000/svg" d="M20.961 227.22l3.726 4.658-1.863-6.056c-0.466-2.795-3.726 0.466-1.863 1.398M25.153 224.425c1.397 2.329 2.795 4.658 2.795 6.987 0 3.261 2.795 4.658 5.123 5.589-3.261-3.726-5.124-13.974-7.918-12.576M204.017 26.929c7.918 0 15.371-0.932 23.756 0.931 20.495 5.124 37.729 15.371 49.374 29.811l32.606 52.169c1.397 13.042 4.192 27.482 3.726 43.319 3.261 0 2.795-4.658 6.521-5.59-3.726 9.316-5.59 20.961-6.521 34.469-2.329-7.453 0-18.632 0.466-24.687-3.261 5.124-5.124 1.397-5.124-0.932 0.466-3.726-1.397-3.261-2.795-4.658-5.124-4.658-8.384-9.782-12.11-17.7 2.329-6.055 2.795-14.905-4.658-19.563-2.329-1.397-5.124-3.726-6.521-7.453-1.863-5.124-5.124-11.179-4.193-19.097 0.466-2.329-6.987 5.124-11.179 1.863-18.166-12.576-36.332-27.016-58.224-39.127-11.645 0-20.029-4.192-24.221-9.316-3.726-4.658-0.932-10.713 4.658-11.179 3.261 0 6.987-0.932 9.782 0.932 0.466-1.863 2.329-4.192 4.657-4.192M157.904 16.215l0.932 0.466c4.658 0.932 6.987 7.453 12.11 5.124 0 3.261 0.466 6.521-0.466 8.85-1.397 3.726-5.59 3.726-8.85 3.726-31.208-1.863-49.374 11.179-68.471 22.358-5.124 3.261-10.713 5.59-14.906 9.782-20.029 18.632-41.921 35.866-47.045 70.335l-4.192 38.195c-0.466 4.192-5.124 8.384-4.192 13.508l3.26 22.824c-3.261-3.261-5.124 0.932-4.192 2.795 0.466 1.397 2.329 6.055 5.124 1.863 3.726 6.987 7.453 20.495 12.576 26.55 15.837 18.632 36.332 35.4 53.101 52.169 4.192-0.932 7.453-0.932 8.384-3.727 1.397 2.795-1.397 5.59-3.726 6.056 7.453 4.658 15.837 8.85 27.016 9.781 14.44 0.932 27.948 3.261 40.524 6.522 6.521-1.863 13.042-2.795 20.029-3.261 2.329 0 3.726-3.726 6.521-4.658l0.466-4.658c2.795 4.192 2.329-1.397 0.466-4.192 3.261 2.795 4.192 5.124 5.589 6.987 0-1.397 3.726-6.521 3.727-0.466l0.931-6.055c1.397-0.932 1.863 5.124 3.261 0.931 1.397-4.192 4.192-0.932 6.987-2.329-0.932 1.863-0.466 5.59 2.794 3.261l3.727-3.261c2.329 5.59 6.055 3.261 7.918 2.329 20.495-13.042 40.99-28.413 60.553-43.784l-0.466 6.055 2.329-7.453c2.329 2.329 4.192 0.466 5.124-0.931 2.795-4.658 6.521-9.316 12.577-13.508-7.453 20.029-16.303 35.866-27.482 48.908l-4.658 5.59c0 3.261-0.932 7.453-4.658 7.918-1.863 0.466-5.59-0.932-8.384 1.863-1.397 1.863 3.261 5.59-0.466 2.795-3.261-2.329-6.521 0-10.248 0.932-2.795 0.932 1.863 3.726 2.795 5.589 0.932 1.863 1.863 3.726 1.398 6.056l-5.124-5.59c-6.055 3.261-9.782 9.316-14.906 13.974-2.329 1.863-1.397 5.124-1.397 7.918-3.261 0-6.987-0.932-8.85 0.932-1.397 1.863-0.932 4.658-0.932 7.453-4.658-0.466-5.124-7.453-9.315-6.056-4.192 0.932-8.85 1.397-12.577 3.727 2.795 5.59-4.658 2.329-3.726 3.26-6.987-4.192-13.042-7.453-20.495-4.658-15.837-5.124-35.4-2.795-49.84-0.931 0-2.329 0.466-4.658-0.466-5.124-0.932 2.329-3.726 1.397-3.26 1.397-8.85-6.055-17.7-9.782-27.016-14.905-8.384 0.932-16.303-3.261-18.632-5.59-6.521-6.055-13.974-2.795-20.029-4.192-13.042-3.261-17.7-16.769-19.098-26.084-0.932-4.658-4.658-6.521-6.055-6.056-6.055-19.563-15.371-37.263-22.824-55.429-1.863-4.658-1.397-9.316-1.397-14.44 2.329 0.932 4.658 0.466 4.192-2.794-2.329-15.371-7.918-27.016-13.974-38.195 3.261-15.837 3.726-34.469 11.179-48.443 6.521-12.576 18.632-19.098 27.016-29.811 2.795-3.726 2.795-8.85 5.59-12.11 9.316-9.316 18.632-19.098 28.879-27.482 4.658-3.726 10.247 0 17.234-1.397 2.329-8.384 11.645-15.837 20.495-13.508 3.726 0.932 11.179-8.85 13.508-9.782 3.726-1.397 1.863 3.726 1.863 6.987 8.85-6.987 20.961-10.713 32.14-14.906" fill="#4d7e3e" fill-rule="nonzero" stroke="none" stroke-width="1" stroke-linecap="butt" stroke-linejoin="miter" stroke-miterlimit="10" stroke-dasharray="" stroke-dashoffset="0" font-family="none" font-weight="none" font-size="none" text-anchor="none" style="mix-blend-mode: normal" data-fill-palette-color="tertiary"></path></g><g transform="matrix(1,0,0,1,64,123.04156479217605)"><svg viewBox="0 0 192 113.9168704156479" height="113.9168704156479" width="192"><g><svg viewBox="0 0 192 113.9168704156479" height="113.9168704156479" width="192"><g><svg viewBox="0 0 192 113.9168704156479" height="113.9168704156479" width="192"><g><svg viewBox="0 0 192 113.9168704156479" height="113.9168704156479" width="192"><g id="textblocktransform"><svg viewBox="0 0 192 113.9168704156479" height="113.9168704156479" width="192" id="textblock"><g><svg viewBox="0 0 192 113.9168704156479" height="113.9168704156479" width="192"><g transform="matrix(1,0,0,1,0,0)"><svg width="192" viewBox="1.75 -36 61.349998474121094 36.400001525878906" height="113.9168704156479" data-palette-color="#4d7e3e"><path d="M9.25-7L9.25-7Q7.2-8.95 6.05-11.68 4.9-14.4 4.9-17.45L4.9-17.45Q4.9-20.5 6.05-23.23 7.2-25.95 9.25-28L9.25-28Q11.2-30.05 13.88-31.23 16.55-32.4 19.6-32.4L19.6-32.4Q22.65-32.4 25.33-31.23 28-30.05 30.05-28L30.05-28Q32.05-25.95 33.23-23.23 34.4-20.5 34.4-17.45L34.4-17.45Q34.4-14.4 33.23-11.68 32.05-8.95 30.05-7L30.05-7Q28-4.95 25.3-3.78 22.6-2.6 19.55-2.6L19.55-2.6Q16.5-2.6 13.85-3.78 11.2-4.95 9.25-7ZM23.3 0L23.3 0 38.65 0 38.65-3 29.7-3Q31.25-4 32.6-5.3 33.95-6.6 34.9-8.2L34.9-8.2Q36.15-10.2 36.85-12.55 37.55-14.9 37.55-17.45L37.55-17.45Q37.55-21.15 36.13-24.43 34.7-27.7 32.3-30.1L32.3-30.1Q29.85-32.55 26.58-33.98 23.3-35.4 19.6-35.4L19.6-35.4Q15.9-35.4 12.65-33.98 9.4-32.55 7-30.1L7-30.1Q4.55-27.7 3.15-24.43 1.75-21.15 1.75-17.45L1.75-17.45Q1.75-13.75 3.15-10.5 4.55-7.25 7-4.8L7-4.8Q9.4-2.4 12.65-1 15.9 0.4 19.6 0.4L19.6 0.4Q20.5 0.4 21.43 0.3 22.35 0.2 23.3 0ZM42.85-23.6L45.9-23.6Q45.95-26.75 46-29.8 46.05-32.85 46.1-36L46.1-36 42.85-36 42.85-23.6ZM61.8-1.7L61.8-1.7Q62.5-2.6 62.8-3.6 63.1-4.6 63.1-5.35L63.1-5.35Q63.1-6.95 62.5-7.95 61.9-8.95 60.95-9.6L60.95-9.6Q60.05-10.2 58.95-10.63 57.85-11.05 56.9-11.45L56.9-11.45Q55.95-11.8 55.27-12.3 54.6-12.8 54.55-13.65L54.55-13.65Q54.5-14.25 54.7-14.7 54.9-15.15 55.25-15.5L55.25-15.5Q55.65-15.75 56.17-15.9 56.7-16.05 57.25-16.05L57.25-16.05Q57.9-16.05 58.45-15.93 59-15.8 59.5-15.55L59.5-15.55 59.5-13.15 62.35-13.15 62.35-17.2Q61.85-17.75 61.17-18.1 60.5-18.45 59.8-18.7L59.8-18.7Q59.05-18.95 58.37-19.05 57.7-19.15 57.15-19.15L57.15-19.15Q56.25-19.15 55.2-18.82 54.15-18.5 53.3-17.85L53.3-17.85Q52.45-17.2 51.9-16.18 51.35-15.15 51.35-13.7L51.35-13.7Q51.35-12 52-11.03 52.65-10.05 53.6-9.5L53.6-9.5Q54.6-8.95 55.72-8.63 56.85-8.3 57.8-7.9L57.8-7.9Q58.75-7.55 59.32-6.98 59.9-6.4 59.9-5.3L59.9-5.3Q59.9-4.6 59.65-4.13 59.4-3.65 59.05-3.35L59.05-3.35Q58.55-3 58-2.85 57.45-2.7 56.9-2.7L56.9-2.7Q55.9-2.7 55.12-2.8 54.35-2.9 53.6-3.35L53.6-3.35 53.6-5.6 50.75-5.6 50.75-1.55Q51.85-0.45 53.47-0.03 55.1 0.4 56.8 0.4L56.8 0.4Q58.65 0.4 59.87-0.2 61.1-0.8 61.8-1.7Z" opacity="1" transform="matrix(1,0,0,1,0,0)" fill="#4d7e3e" class="undefined-text-0" data-fill-palette-color="primary" id="text-0"></path></svg></g></svg></g></svg></g></svg></g><g></g></svg></g></svg></g></svg></g></svg></g><defs></defs></svg><rect width="320" height="360" fill="none" stroke="none" visibility="hidden"></rect></g></svg></g></svg>